PathFileType	4	(X/Y/Z)	StaticT.trc																																																																									
DataRate	CameraRate	NumFrames	NumMarkers	Units	OrigDataRate	OrigDataStartFrame	OrigNumFrames																																																																					
100	100	5	25	mm	100	300	481																																																																					
Frame#	Time	AA			AI			Ant_Sh			CV7			GH			LAH			Lat_Sh			LCAJ			LPH			Post_Sh			RAH			RCAJ			RHLE			RHME			RPH			RUA			SJN			SXS			TS			TV8			centelbow			centpxt8			centijc7			centLPHRPH			ScapulaThoracicContactPt		
		X1	Y1	Z1	X2	Y2	Z2	X3	Y3	Z3	X4	Y4	Z4	X5	Y5	Z5	X6	Y6	Z6	X7	Y7	Z7	X8	Y8	Z8	X9	Y9	Z9	X10	Y10	Z10	X11	Y11	Z11	X12	Y12	Z12	X13	Y13	Z13	X14	Y14	Z14	X15	Y15	Z15	X16	Y16	Z16	X17	Y17	Z17	X18	Y18	Z18	X19	Y19	Z19	X20	Y20	Z20	X21	Y21	Z21	X22	Y22	Z22	X23	Y23	Z23	X24	Y24	Z24	X25	Y25	Z25
																																																																												
301	3	-754.3676147	1557.89209	764.9093018	-771.0700684	1376.036133	722.8162842	-643.6724243	1576.006592	779.8052368	-749.5631104	1597.305542	584.8814697	-695.6706543	1549.444458	777.7470703	-530.0613403	1779.238525	557.1049194	-715.1610718	1586.486328	792.1064453	-699.1245117	1595.192871	439.6875	-729.5704346	1731.679199	518.6680298	-768.2923584	1512.34729	774.8724976	-547.687439	1778.979248	654.4335938	-707.3817749	1589.588745	733.0723267	-723.8397217	1522.951904	1052.683228	-609.1086426	1476.607422	1058.449219	-742.9688721	1734.273804	634.4814453	-724.7692871	1460.339233	906.5227051	-584.4758301	1522.543579	592.687561	-522.4016724	1343.891968	593.5155029	-803.8041382	1505.821655	676.9018555	-756.4630127	1310.125244	585.7150879	-666.4741821	1499.779663	1055.566223	-639.4323425	1327.008606	589.6152954	-667.0194702	1559.924561	588.7845154	-736.2696533	1732.976501	576.5747375	-776.4139404	1479.916626	721.5424805
302	3.01	-754.3436279	1557.90625	764.9458008	-771.0700684	1376.036133	722.8162842	-643.6506958	1576.041504	779.843689	-749.5661011	1597.301636	584.9028931	-695.6444092	1549.461304	777.7821045	-530.0855713	1779.261597	557.1066284	-715.1404419	1586.488281	792.0826416	-699.1305542	1595.195557	439.7047729	-729.6067505	1731.685669	518.6924438	-768.2608643	1512.338257	774.902832	-547.6581421	1778.972412	654.3895264	-707.3721924	1589.593384	733.1171875	-723.8452759	1522.926025	1052.688354	-609.0708618	1476.642212	1058.51416	-742.9672241	1734.302979	634.4777832	-724.6987915	1460.287964	906.5339355	-584.4763184	1522.54126	592.6977539	-522.4033203	1343.89209	593.5218506	-803.7307739	1505.797729	676.9058228	-756.4266968	1310.083008	585.6943359	-666.4580688	1499.784119	1055.601257	-639.4150085	1326.987549	589.6080933	-667.0212097	1559.921448	588.8003235	-736.2869873	1732.994324	576.5851135	-776.3814901	1479.913371	721.5559692
303	3.02	-754.3700562	1557.896973	764.9623413	-771.0702515	1376.035767	722.8162842	-643.696167	1576.036621	779.8341064	-749.5270996	1597.296509	584.9133911	-695.6548462	1549.472412	777.7908325	-530.0134888	1779.226318	557.1252441	-715.1403809	1586.484741	792.100708	-699.0866699	1595.184937	439.717865	-729.6015015	1731.660767	518.697876	-768.3092041	1512.327393	774.9335938	-547.6450195	1779.005981	654.3638916	-707.3995972	1589.577759	733.0795288	-723.8397217	1522.951904	1052.683228	-609.0638428	1476.605835	1058.484985	-742.9672241	1734.302979	634.4777832	-724.737854	1460.3302	906.5535278	-584.4797974	1522.540405	592.7091064	-522.3514404	1343.854126	593.5101929	-803.7724609	1505.812378	676.9318848	-756.3509521	1310.078369	585.7033691	-666.4517822	1499.77887	1055.584106	-639.3511963	1326.966248	589.606781	-667.0034485	1559.918457	588.8112488	-736.2843628	1732.981873	576.5878296	-776.4042562	1479.915039	721.5701701
304	3.03	-754.371582	1557.926147	764.9653931	-771.0863037	1375.994995	722.8729858	-643.6259155	1575.987305	779.7977905	-749.5218506	1597.299072	584.9354248	-695.6500244	1549.419434	777.7545776	-530.0735474	1779.251343	557.0298462	-715.1414795	1586.483398	792.1013794	-699.1084595	1595.151367	439.739624	-729.5353394	1731.616211	518.7017212	-768.2608643	1512.338257	774.902832	-547.6558838	1778.970093	654.3701172	-707.4265747	1589.577759	733.1480713	-723.7329102	1522.918945	1052.721069	-609.0126953	1476.607544	1058.506348	-742.9215088	1734.276978	634.507019	-724.7121582	1460.273682	906.585144	-584.487915	1522.529175	592.7498779	-522.352478	1343.842651	593.536438	-803.7407227	1505.803223	676.961853	-756.4353027	1310.088013	585.7510376	-666.3728027	1499.763245	1055.613708	-639.3938904	1326.965332	589.6437378	-667.0048828	1559.914124	588.8426514	-736.2284241	1732.946594	576.6043701	-776.3995361	1479.908122	721.6000773
305	3.04	-754.3231201	1557.900879	764.9406738	-771.0760498	1375.988525	722.8168335	-643.6540527	1575.992676	779.8444214	-749.480957	1597.293945	584.9300537	-695.6311035	1549.45105	777.7709961	-530.0469971	1779.22522	557.0240479	-715.1160889	1586.487305	792.1294556	-699.0556641	1595.156006	439.7187195	-729.5717163	1731.622681	518.7261963	-768.2924194	1512.34729	774.8724976	-547.6170654	1778.981445	654.3501587	-707.3721924	1589.593384	733.1171875	-723.7577515	1522.974365	1052.689087	-608.9761353	1476.792358	1058.549805	-742.9645386	1734.299194	634.5264893	-724.6930542	1460.335327	906.5330811	-584.4857788	1522.532227	592.7252197	-522.3980103	1343.844849	593.5066528	-803.7050171	1505.741699	676.9363403	-756.3928833	1310.094116	585.7298584	-666.3669434	1499.883362	1055.619446	-639.3954468	1326.969482	589.6182556	-666.9833679	1559.913086	588.8276367	-736.2681274	1732.960937	576.6263428	-776.3680623	1479.877035	721.5646159
